<?xml version="1.0" encoding="UTF-8" standalone="no"?>
<!-- Created with Inkscape (http://www.inkscape.org/) -->

<svg
   width="175.21841mm"
   height="177.52942mm"
   viewBox="0 0 175.21841 177.52942"
   version="1.1"
   id="svg4542"
   inkscape:version="1.2.2 (732a01da63, 2022-12-09)"
   sodipodi:docname="logo.svg"
   xmlns:inkscape="http://www.inkscape.org/namespaces/inkscape"
   xmlns:sodipodi="http://sodipodi.sourceforge.net/DTD/sodipodi-0.dtd"
   xmlns="http://www.w3.org/2000/svg"
   xmlns:svg="http://www.w3.org/2000/svg">
  <sodipodi:namedview
     id="namedview4544"
     pagecolor="#ffffff"
     bordercolor="#000000"
     borderopacity="0.25"
     inkscape:showpageshadow="2"
     inkscape:pageopacity="0.0"
     inkscape:pagecheckerboard="0"
     inkscape:deskcolor="#d1d1d1"
     inkscape:document-units="mm"
     showgrid="false"
     inkscape:zoom="0.73673541"
     inkscape:cx="117.40986"
     inkscape:cy="395.66444"
     inkscape:window-width="1920"
     inkscape:window-height="1002"
     inkscape:window-x="-8"
     inkscape:window-y="-8"
     inkscape:window-maximized="1"
     inkscape:current-layer="layer1" />
  <defs
     id="defs4539" />
  <g
     inkscape:label="Layer 1"
     inkscape:groupmode="layer"
     id="layer1"
     transform="translate(-16.538321,-44.113227)">
    <path
       style="fill:#6a7cfd;stroke-width:0.264583;fill-opacity:1"
       d="m 27.441101,221.35579 c -3.802991,-0.49361 -8.093231,-3.67286 -9.895043,-7.33265 l -0.868797,-1.76467 -0.06947,-29.77143 -0.06947,-29.77143 11.379779,1.4e-4 11.37978,1.4e-4 5.29e-4,15.0151 5.29e-4,15.01511 h 3.175 3.175 V 167.66485 152.5836 h 3.836458 3.836459 v 15.22249 15.22248 l 6.01927,-0.0284 6.019271,-0.0284 0.07303,3.98568 0.07302,3.98568 -13.037605,0.0686 -13.037608,0.0686 -0.07027,7.47448 -0.07027,7.47448 h -3.974372 -3.974372 l 0.03015,-15.54427 0.03016,-15.54427 h -3.39385 -3.39385 v 16.66875 16.66875 l 0.722416,1.22888 c 2.155923,3.6674 2.621383,3.78398 15.483313,3.87791 l 10.914062,0.0797 v 4.08748 4.08748 l -11.31094,-0.0335 c -6.221015,-0.0184 -12.063148,-0.13119 -12.982514,-0.25051 z m 4.185119,-57.79198 v -3.3073 H 28.054345 24.48247 v 3.3073 3.30729 h 3.571875 3.571875 z m 27.781249,49.34612 v -8.73258 h 3.704167 3.704167 v 4.21169 c 0,2.31643 0.07227,4.40003 0.160599,4.63021 0.142468,0.37126 1.273146,0.41851 10.01495,0.41851 h 9.854353 l 0.169921,-2.18281 c 0.44873,-5.76439 1.22437,-5.22552 -7.521464,-5.22552 h -6.857526 v -11.50937 -11.50938 h 6.979062 c 8.541814,0 7.596709,0.91387 7.563395,-7.3134 l -0.02663,-6.57722 3.986877,-0.073 3.986879,-0.073 v 10.98285 10.98285 l -7.209896,0.0704 -7.209896,0.0704 -0.07454,3.10886 -0.07454,3.10885 h 7.284437 7.28444 v 8.07819 8.07819 l 3.108854,-0.0745 3.108852,-0.0746 0.07,-8.01034 0.07,-8.01035 4.1633,0.0729 4.1633,0.0728 v 12.03854 12.03855 l -25.201564,0.0675 -25.201562,0.0675 z m 57.150001,-6.61592 v -15.34583 h -7.54063 -7.54062 v -3.96463 -3.96463 l 7.47448,-0.0703 7.47448,-0.0703 0.0705,-6.94531 0.0705,-6.94532 h 11.76956 11.76957 v -7.54062 -7.54063 h 4.10104 4.10104 v 11.50938 11.50937 h -11.77396 -11.77396 v 18.25625 18.25625 h 4.92952 4.92951 l -0.16077,3.63802 c -0.0884,2.00092 -0.16358,3.84638 -0.16702,4.10105 -0.006,0.43163 -0.60708,0.46302 -8.86978,0.46302 h -8.86354 z m 23.66701,13.31152 c -0.10484,-1.11888 -0.13306,-4.92503 -0.0627,-8.45812 l 0.12793,-6.42381 -2.80414,-0.0747 -2.80414,-0.0747 v -3.57187 -3.57188 l 16.86719,-0.0681 16.8672,-0.0681 0.0441,-10.71366 c 0.0243,-5.89252 0.054,-10.92203 0.0662,-11.17669 0.0235,-0.49366 -4.08545,-0.85028 -5.55299,-0.48195 l -0.64267,0.1613 v 7.93246 7.93246 h -3.96881 -3.96875 V 178.90964 166.8711 h 7.01146 7.01146 l 0.0411,-2.4474 c 0.0226,-1.34607 0.0524,-4.23333 0.0662,-6.41614 l 0.025,-3.96875 4.0349,-0.073 4.03489,-0.073 v 6.48918 6.48919 h 7.54063 7.54062 v 21.90483 c 0,25.98746 0.0941,25.2101 -3.4945,28.87486 -3.89291,3.97554 -3.92717,3.98043 -27.9022,3.98515 l -19.88732,0.004 z m 38.99564,-6.9815 c 1.77654,-0.88774 3.13142,-2.32123 3.99667,-4.22855 0.51577,-1.13693 0.53342,-1.7061 0.53904,-17.38115 l 0.006,-16.20573 h -3.57188 -3.57187 v 15.61041 15.61042 h -14.1554 -14.15521 v 3.70417 3.70416 h 14.64212 14.64211 z M 45.384553,201.13464 v -3.83646 h 3.96875 3.96875 v 3.83646 3.83646 h -3.96875 -3.96875 z m 89.164587,-14.15521 v -3.96875 h 3.83645 3.83646 v 3.96875 3.96875 h -3.83646 -3.83645 z M 59.407469,172.95651 v -3.96875 h 10.715625 10.715625 v 3.96875 3.96875 H 70.123094 59.407469 Z m 42.068751,-0.007 v -3.97547 l 4.16719,0.0729 4.16718,0.0729 0.0632,3.90261 0.0632,3.9026 h -4.23042 -4.23043 v -3.97546 z M 59.583859,162.46109 c -0.09701,-0.097 -0.17639,-2.30276 -0.17639,-4.90168 v -4.72529 l 4.034896,0.073 4.034896,0.073 0.07211,4.82865 0.07212,4.82864 H 63.69087 c -2.161845,0 -4.009999,-0.0794 -4.107011,-0.17639 z m 14.2875,0 c -0.09702,-0.097 -0.17639,-13.31294 -0.17639,-29.36874 v -29.19208 l 0.859896,-0.0429 c 0.472943,-0.0236 13.926933,-0.0534 29.897755,-0.0662 l 29.03786,-0.0233 1.6e-4,29.43489 1.6e-4,29.43489 h -29.72152 c -16.346847,0 -29.800909,-0.0794 -29.897921,-0.17639 z m 49.836621,-10.07621 c 0.004,-0.10914 0.0265,-9.00906 0.0506,-19.7776 l 0.0438,-19.57917 H 104.10651 84.410594 l -0.06783,19.7776 -0.06783,19.77761 h 19.713146 c 10.84223,0 19.71618,-0.0893 19.7199,-0.19844 z M 91.376795,135.31954 c -0.0249,-5.7117 -0.05466,-11.45646 -0.06615,-12.76615 l -0.0209,-2.38125 12.628175,-0.0687 12.62817,-0.0687 0.17528,0.69838 c 0.0964,0.3841 0.1004,2.55815 0.009,4.83121 -0.0915,2.27306 -0.16783,7.73447 -0.1696,12.13648 l -0.003,8.00364 H 103.98976 91.422052 Z m 63.016095,12.24405 v -12.70708 h -7.14375 -7.14375 v -6.78456 -6.78457 l 1.62631,0.16998 c 0.89447,0.0935 2.73994,0.16999 4.10104,0.16999 h 2.47473 v 2.77812 2.77813 h 21.69584 21.69583 v 3.83646 3.83645 h -14.68181 -14.68181 l -0.0687,12.63386 -0.0687,12.63385 -3.90261,0.0732 -3.9026,0.0732 z m 29.36875,3.03563 v -9.65729 h 3.55023 c 1.95263,0 3.73857,-0.0723 3.96875,-0.1606 0.377,-0.14466 0.41852,0.81336 0.41852,9.65729 v 9.81789 h -3.96875 -3.96875 z m -43.65625,-5.95312 v -3.96875 h 4.10104 4.10104 v 3.96875 3.96875 h -4.10104 -4.10104 z m 28.49342,3.79898 c -0.27322,-0.27323 -0.22123,-7.44829 0.0552,-7.61914 0.13103,-0.081 2.00626,-0.0702 4.16719,0.0239 l 3.92897,0.17116 v 3.73076 3.73077 l -3.98418,0.0728 c -2.1913,0.04 -4.06653,-0.01 -4.16719,-0.11024 z M 16.721359,146.32179 c -0.09701,-0.097 -0.176389,-6.76451 -0.176389,-14.81666 v -14.64028 h 3.96875 3.96875 v 10.84792 10.84791 h 21.145026 c 11.629765,0 21.333359,0.0723 21.563541,0.1606 0.354807,0.13615 0.418516,0.74029 0.418516,3.96875 v 3.80815 H 42.253651 c -13.945748,0 -25.435279,-0.0794 -25.532292,-0.17639 z m 42.686671,-35.21162 5.29e-4,-21.365109 h 10.648919 10.648918 v 3.96875 3.96875 l -6.548438,0.07077 -6.548437,0.07077 v 17.325579 17.32558 h -4.101042 -4.101041 l 5.29e-4,-21.36509 z m -28.046394,8.00364 v -13.09687 h 3.96875 3.96875 v 13.09687 13.09687 h -3.96875 -3.96875 z m 14.2875,8.33437 v -4.7625 h 3.836458 3.836459 v 4.7625 4.7625 H 49.485594 45.649136 Z M 154.39289,105.48777 V 89.877353 h 14.3874 c 11.95769,0 14.43892,-0.06209 14.69251,-0.367649 0.22471,-0.270756 0.28554,-4.471985 0.23083,-15.941146 l -0.0743,-15.573496 -0.72343,-1.230604 c -2.42149,-4.119168 -2.7723,-4.193355 -19.8298,-4.193355 h -13.97488 v -4.101041 c 0,-3.107317 0.0801,-4.099738 0.33073,-4.095655 0.1819,0.003 6.9387,-0.06526 15.01511,-0.151612 9.15449,-0.09788 15.3497,-0.05862 16.45112,0.104233 4.69444,0.694121 9.24118,4.656558 10.41846,9.079582 0.63589,2.389036 0.55972,44.405727 -0.0805,44.414815 -0.25466,0.0036 -6.86263,7.94e-4 -14.68438,-0.0064 -11.34183,-0.01037 -14.22553,0.05526 -14.24197,0.324157 -0.0113,0.185438 -0.003,5.427088 0.0191,11.648098 l 0.0397,11.31093 h -3.98789 -3.98781 z m 14.21066,15.44538 c -0.0908,-0.0908 -0.17195,-4.03799 -0.18041,-8.77161 l -0.0154,-8.60658 3.77433,0.17078 c 2.07589,0.0939 3.92317,0.17163 4.10507,0.17266 0.25073,0.001 0.33073,1.02592 0.33073,4.2352 v 4.23334 h 7.54063 7.54062 v 4.36562 4.36562 h -11.46527 c -6.30591,0 -11.53955,-0.0743 -11.63031,-0.16503 z M 140.10539,108.1336 v -4.49791 h 2.47473 c 1.3611,0 3.20657,0.0765 4.10104,0.16998 l 1.62631,0.16998 v 4.32794 4.32793 h -4.10104 -4.10104 z m -94.456254,0.29289 c 0,-3.20902 0.05687,-3.69768 0.447762,-3.84768 0.346758,-0.13306 7.357446,0.0714 7.357446,0.21453 0,0.0181 -0.03621,1.67008 -0.08046,3.67099 l -0.08046,3.63802 h -3.822141 -3.822139 z m -28.983262,1.49263 c -0.07297,-0.19015 -0.100261,-12.969145 -0.06064,-28.397753 l 0.07203,-28.052017 1.009568,-2.042548 c 3.471254,-7.023002 4.641946,-7.303463 30.211265,-7.237704 l 18.520834,0.04763 0.07286,4.167188 0.07287,4.167187 -18.196825,0.0058 c -17.232855,0.0055 -18.254808,0.03214 -19.291406,0.502846 -1.539293,0.698971 -3.112309,2.200492 -3.840863,3.666289 l -0.620803,1.249003 -0.132291,26.061458 -0.132292,26.061461 -3.775816,0.0734 c -2.91729,0.0567 -3.805983,-0.005 -3.908488,-0.2723 z M 45.609187,83.401774 45.708257,68.97527 h -1.57825 c -0.868037,0 -2.310091,0.07649 -3.204562,0.169984 l -1.626312,0.169982 v 10.28106 10.281057 h -3.96875 -3.96875 V 75.33031 60.783267 l 0.595313,-0.14482 c 0.327422,-0.07965 5.23875,-0.111685 10.914062,-0.07119 l 10.31875,0.07363 0.07027,7.477776 0.07027,7.477775 9.587018,-0.06944 9.587021,-0.06944 0.06826,-15.54427 0.06826,-15.544271 h 4.138986 4.138988 l -0.16986,5.490107 c -0.09342,3.019557 -0.170984,11.8291 -0.172352,19.576764 l -0.0025,14.08666 -13.559896,0.06855 -13.559896,0.06855 -0.132291,7.011458 -0.132292,7.011458 -3.839824,0.07286 -3.839821,0.07286 z m 41.43385,14.076714 c -0.07399,-0.192818 -0.101248,-2.011717 -0.06057,-4.042003 l 0.07396,-3.691424 3.175,-0.07908 c 1.74625,-0.04349 3.565102,-0.0078 4.041894,0.07945 l 0.866892,0.158528 -0.07314,3.889301 -0.07314,3.889303 -3.908181,0.07325 c -3.052842,0.05722 -3.937625,-0.0035 -4.042709,-0.277323 z M 101.47622,83.401779 V 68.97527 H 94.200177 86.924136 V 56.672145 44.36902 h 4.101041 4.101042 l -2.9e-5,8.135937 -2.9e-5,8.135938 7.247459,-0.05756 7.24746,-0.05756 0.15729,0.586726 c 0.0865,0.322699 0.15892,3.717126 0.1609,7.543168 l 0.004,6.956441 9.32657,-0.07727 9.32656,-0.07728 0.073,4.034896 0.073,4.034896 h -9.39528 -9.39528 l -0.0705,7.077604 -0.0705,7.077604 -4.16718,0.07286 -4.16719,0.07287 z m 15.08125,10.459939 c 0,-2.174224 0.0893,-3.99905 0.19844,-4.055165 0.10914,-0.05612 1.95461,-0.0499 4.10104,0.01381 l 3.9026,0.115837 v 3.939326 3.939328 h -4.10104 -4.10104 V 93.86172 Z m 18.04801,-7.156222 0.076,-11.109356 13.82454,-0.06929 13.82454,-0.06929 -6e-5,4.030575 -6e-5,4.030573 -7.03637,0.07047 -7.03637,0.07047 0.0364,7.077604 0.0364,7.077604 h -6.90049 -6.9005 z m -47.622091,-7.213039 0.07304,-4.034896 4.034896,-0.07304 4.034896,-0.07304 v 4.107931 4.107934 H 91.018285 86.910353 Z M 168.41581,76.251311 V 68.97527 h -25.92917 -25.92917 v -4.101042 -4.101041 h 8.98384 8.98385 l 0.15706,-0.859896 c 0.0864,-0.472943 0.12155,-2.333313 0.0781,-4.134155 l -0.0789,-3.274261 -4.96061,-0.03303 -4.96061,-0.03303 -0.002,1.455208 -0.002,1.455208 -4.09974,0.02408 -4.09974,0.02408 v -5.475927 -5.475925 l 1.78594,-0.168672 c 2.31879,-0.218996 10.31865,-0.218072 17.88276,0.0021 l 5.9958,0.174456 v 7.989718 7.989716 l 7.73906,0.167343 c 4.25649,0.09204 11.99556,0.120224 17.19793,0.06263 l 9.45885,-0.104711 v 11.484612 11.484613 h -4.10104 -4.10104 z M 60.135074,69.023842 59.407469,68.940123 v -4.21576 -4.21576 h 3.54634 3.546338 l 0.100608,1.389063 c 0.05533,0.763984 0.09659,2.672564 0.09168,4.241286 l -0.0089,2.852227 -2.910417,0.05819 c -1.600729,0.03201 -3.237839,0.02053 -3.638021,-0.02553 z M 101.47622,48.470062 V 44.36902 h 4.24128 4.24127 l -0.0741,4.101005 -0.0741,4.101004 -4.16719,3.7e-5 -4.16718,3.7e-5 z"
       id="path181" />
  </g>
</svg>
