<?xml version="1.0" standalone="no"?>
<!DOCTYPE svg PUBLIC "-//W3C//DTD SVG 20010904//EN"
 "http://www.w3.org/TR/2001/REC-SVG-20010904/DTD/svg10.dtd">
<svg version="1.0" xmlns="http://www.w3.org/2000/svg"
 width="671.000000pt" height="671.000000pt" viewBox="0 0 671.000000 671.000000"
 preserveAspectRatio="xMidYMid meet">
<metadata>
Created by potrace 1.14, written by Peter Selinger 2001-2017
</metadata>
<g transform="translate(0.000000,671.000000) scale(0.100000,-0.100000)"
fill="#000000" stroke="none">
<path d="M637 6704 c-1 -1 -45 -5 -97 -9 -161 -11 -209 -20 -278 -53 -66 -31
-114 -86 -172 -193 l-44 -84 -2 -1072 c-2 -990 -1 -1073 15 -1075 65 -7 271
-2 272 7 1 10 7 648 12 1475 3 452 4 488 22 525 23 47 74 101 130 135 38 23
46 24 227 25 103 0 188 2 188 5 0 6 98 3 116 -4 8 -3 14 -1 14 4 0 5 13 5 30
0 17 -5 30 -5 30 0 0 5 13 5 30 0 17 -5 30 -5 30 0 0 5 13 5 30 0 17 -5 30 -6
30 -2 0 4 29 7 65 7 36 0 65 -3 65 -7 0 -4 6 -5 14 -2 20 8 106 10 106 3 0 -4
17 -3 38 1 20 3 50 3 65 -1 15 -4 40 -4 56 1 16 4 34 4 41 0 7 -4 25 -4 40 0
15 4 33 4 40 0 7 -4 25 -4 40 0 15 4 33 4 41 0 7 -5 17 -6 22 -3 4 3 24 5 43
5 l34 0 -2 154 c-2 93 -7 155 -13 155 -15 3 -1276 5 -1278 3z"/>
<path d="M2159 6670 c0 -24 -4 -1082 -4 -1141 0 -1 -163 -3 -362 -5 l-363 -5
-1 108 c0 59 -2 187 -2 283 l-2 175 -395 2 c-217 1 -403 0 -412 -3 -14 -4 -17
-20 -17 -102 0 -53 -1 -101 -2 -107 -1 -5 -1 -14 0 -19 3 -12 3 -208 0 -221
-1 -5 -1 -14 0 -19 1 -5 2 -150 1 -323 l0 -313 150 0 150 0 0 389 0 389 34 4
c19 2 73 4 121 3 l88 0 -3 -280 c-1 -154 -3 -398 -4 -543 l-2 -263 136 2 c74
2 140 6 146 10 9 7 11 71 17 459 l1 65 510 3 c281 1 511 4 512 5 1 1 4 334 6
739 l5 737 -153 3 -154 3 -1 -35z"/>
<path d="M3853 6703 c-27 -4 -33 -9 -33 -29 -1 -13 -1 -80 -1 -149 0 -69 0
-151 1 -183 l0 -59 148 2 c81 2 150 3 154 4 4 0 8 25 10 53 l3 53 168 0 c93 0
176 -3 185 -6 16 -6 18 -22 17 -135 -1 -71 -2 -139 -3 -151 l-2 -23 -340 0
c-295 0 -340 -2 -340 -15 -1 -8 -1 -71 -1 -140 0 -69 0 -132 1 -140 0 -13 116
-15 979 -15 l979 0 -1 -272 0 -273 157 -3 157 -3 -2 434 -2 433 -531 0 c-292
1 -584 2 -648 4 l-118 3 -1 61 c0 34 0 169 0 302 0 182 -2 241 -12 242 -33 4
-896 8 -924 5z"/>
<path d="M5115 6700 l-60 -5 -5 -132 c-3 -73 -2 -143 2 -155 3 -13 6 -20 7
-16 1 4 15 3 31 -2 17 -5 30 -6 30 -2 0 4 16 7 35 7 19 0 35 -3 35 -7 0 -4 6
-5 14 -2 20 8 106 10 106 3 0 -4 17 -3 38 1 20 3 50 3 65 -1 15 -4 40 -4 56 1
16 4 34 4 41 0 7 -4 25 -4 40 0 15 4 33 4 40 0 7 -4 24 -4 39 0 14 4 35 4 46
0 11 -4 29 -4 40 -1 11 4 31 6 45 5 14 -2 93 -5 175 -8 187 -6 229 -12 282
-37 44 -21 78 -60 115 -131 l23 -43 0 -587 c0 -322 -4 -590 -8 -595 -5 -4
-252 -9 -550 -11 -298 -2 -543 -5 -545 -6 -2 -3 -4 -831 -2 -1118 l0 -58 150
0 150 0 -1 431 c-1 348 1 433 12 440 7 4 252 8 543 9 360 0 532 4 537 11 3 6
8 43 10 82 4 105 5 1419 0 1507 -4 74 -23 141 -48 171 -7 8 -13 20 -13 26 0
21 -131 141 -187 170 -109 58 -102 58 -688 58 -297 0 -567 -2 -600 -5z"/>
<path d="M2700 6235 l0 -465 275 0 275 0 0 -546 0 -545 157 3 158 4 2 199 c1
110 2 230 2 268 l1 67 354 0 354 0 -2 145 c-1 80 -6 148 -10 152 -4 5 -163 7
-352 5 l-344 -3 -1 173 c0 158 -4 338 -8 380 -1 16 -23 17 -276 15 l-275 -3 0
308 0 308 -155 0 -155 0 0 -465z"/>
<path d="M3250 6547 l0 -154 48 0 c26 -1 52 -2 57 -3 6 -1 15 -1 20 0 10 1 75
1 143 -1 18 -1 36 2 39 5 4 3 8 73 10 156 l4 150 -161 0 -160 0 0 -153z"/>
<path d="M1660 5930 l0 -160 28 -1 c72 -3 232 0 240 4 6 5 8 113 3 275 l-1 42
-135 0 -135 0 0 -160z"/>
<path d="M2706 5520 c-1 -3 -3 -71 -4 -152 l-3 -148 156 0 155 0 0 155 0 156
-151 -3 c-83 -2 -152 -5 -153 -8z"/>
<path d="M4754 5522 l-250 -2 -1 -153 c-3 -406 -4 -635 -4 -659 l1 -28 260 0
260 0 -2 268 -2 267 134 2 c74 1 194 2 267 2 l131 1 1 150 c1 115 -1 150 -11
151 -27 3 -544 4 -784 1z"/>
<path d="M1664 4981 c-2 -2 -4 -366 -4 -808 l0 -803 155 0 155 0 0 655 0 655
78 0 c98 1 405 7 412 9 3 0 5 66 5 146 0 80 -2 146 -5 146 -15 4 -792 4 -796
0z"/>
<path d="M2709 4986 c-5 -3 -7 -281 -2 -291 3 -10 38 -13 146 -10 78 1 144 3
147 4 3 0 5 67 5 149 l0 147 -147 1 c-82 1 -149 1 -149 0z"/>
<path d="M3839 4978 c-20 -8 -20 -9 -20 -193 0 -36 0 -74 0 -85 1 -19 8 -20
156 -20 l155 0 0 150 0 150 -67 1 c-38 0 -99 1 -136 2 -38 1 -77 -1 -88 -5z"/>
<path d="M2222 4452 l-23 -4 2 -1090 c1 -600 4 -1098 6 -1107 4 -15 93 -17
1128 -19 l1123 -3 -1 1113 -2 1113 -1105 0 c-608 0 -1115 -1 -1128 -3z m1868
-372 c4 -194 -2 -1455 -6 -1459 -3 -3 -338 -7 -745 -9 l-739 -4 0 24 c-1 65 7
1462 9 1468 0 3 334 5 741 5 l740 0 0 -25z"/>
<path d="M2866 3833 c-1 -1 -1 -179 1 -395 1 -216 2 -432 3 -480 l0 -88 474 0
474 0 2 283 c1 155 3 367 5 471 2 104 1 195 -2 203 -4 11 -89 13 -480 11 -261
-2 -476 -4 -477 -5z"/>
<path d="M4710 4291 l0 -171 155 0 155 0 -1 165 c0 91 -1 165 -2 166 -1 0 -71
3 -154 6 l-153 6 0 -172z"/>
<path d="M5779 4453 c-1 -16 0 -402 1 -514 1 -64 5 -121 9 -127 4 -6 150 -9
436 -8 l430 1 2 163 2 162 -285 0 -284 0 -1 103 c-1 132 -5 206 -12 213 -9 9
-297 16 -298 7z"/>
<path d="M1157 4419 c-12 -7 -15 -34 -16 -144 l-2 -135 146 0 145 0 1 93 c0
50 1 112 3 136 1 24 -3 45 -9 47 -22 8 -254 11 -268 3z"/>
<path d="M600 4287 c1 -45 1 -86 -1 -92 -1 -5 -1 -14 0 -19 3 -12 3 -208 0
-221 -1 -5 -1 -14 0 -19 3 -12 3 -208 0 -221 -1 -5 0 -14 1 -20 1 -5 1 -79 1
-162 l-2 -153 151 0 150 0 0 495 0 496 -151 -2 -150 -1 1 -81z"/>
<path d="M41 3406 c2 -517 3 -555 19 -559 10 -2 443 -5 964 -6 l947 -2 -2 139
c0 76 -4 143 -7 148 -9 12 -27 12 -899 13 l-723 1 0 410 0 410 -151 0 -150 0
2 -554z"/>
<path d="M4710 3536 l0 -256 270 0 269 0 0 -402 c0 -222 0 -438 1 -481 l0 -78
147 3 147 4 2 394 c1 217 3 432 3 477 l1 83 553 2 552 3 2 143 1 142 -819 0
c-773 0 -819 1 -820 18 0 9 0 56 1 105 l1 87 -98 1 c-54 0 -124 2 -155 5 l-58
5 0 -255z"/>
<path d="M1140 3560 l0 -180 145 0 145 0 0 180 0 180 -145 0 -145 0 0 -180z"/>
<path d="M4710 2910 l0 -151 153 3 152 3 0 145 0 145 -152 3 -153 3 0 -151z"/>
<path d="M5789 3056 c-6 -7 -9 -63 -10 -160 -1 -89 2 -121 13 -127 10 -6 273
-7 298 0 6 1 4 270 -2 277 -4 3 -296 13 -299 10z"/>
<path d="M6478 3052 c-65 -1 -118 -6 -119 -10 -1 -9 -1 -682 0 -705 1 -16 13
-17 149 -15 l147 3 1 358 c0 202 -3 360 -8 363 -13 8 -40 9 -170 6z"/>
<path d="M43 2595 c-2 -6 -2 -512 0 -1125 l3 -1115 24 -50 c32 -67 75 -123
127 -165 24 -19 49 -40 56 -46 21 -19 108 -61 152 -74 27 -8 187 -13 503 -17
l462 -5 0 154 0 154 -37 2 c-21 1 -195 4 -388 6 -194 3 -374 9 -405 15 -72 15
-118 48 -160 118 l-35 57 -1 615 c0 339 2 623 5 631 5 13 28 15 129 15 115 0
122 -1 123 -20 1 -47 0 -720 -2 -725 -1 -3 -1 -9 0 -14 1 -5 2 -34 2 -65 0
-105 0 -176 -1 -196 -2 -68 3 -141 10 -149 5 -5 42 -8 82 -7 40 1 78 2 83 2 6
0 28 0 50 0 82 -1 75 -11 76 107 1 152 6 446 8 453 1 4 184 6 813 8 l168 1 -3
150 -2 150 -227 0 -228 0 0 575 0 575 -145 0 -145 0 0 -569 0 -570 -37 1 c-21
0 -42 -1 -48 -2 -5 -1 -43 -2 -82 -1 l-73 1 -2 567 -3 568 -424 0 c-287 0
-425 -3 -428 -10z m567 -399 c0 -120 -1 -124 -22 -128 -13 -2 -36 -1 -53 2
-16 3 -45 3 -62 -1 -18 -4 -33 -4 -33 0 0 3 -21 6 -47 6 l-48 0 -3 123 -3 122
136 0 135 0 0 -124z"/>
<path d="M1661 2421 c2 -211 -19 -188 177 -190 l132 -2 -2 180 c-2 109 -7 182
-13 184 -5 2 -74 4 -153 6 l-143 2 2 -180z"/>
<path d="M4710 2275 l0 -284 -307 -1 c-170 -1 -312 -2 -318 -2 -5 0 -66 1
-134 2 -68 1 -125 -1 -128 -4 -3 -3 -6 -120 -7 -260 0 -141 -3 -257 -6 -257
-8 -2 -292 -7 -432 -8 l-128 -1 0 -150 0 -150 284 0 285 0 0 -557 c0 -307 0
-568 1 -581 l0 -23 323 2 c178 0 329 4 335 8 7 4 13 63 17 154 l6 147 -186 0
-185 0 0 173 c-1 94 -1 388 0 652 0 264 0 497 0 518 l0 37 445 0 444 0 0 435
0 435 -155 0 -154 0 0 -285z"/>
<path d="M5786 2550 c-2 -3 -4 -108 -5 -234 -1 -127 -4 -233 -7 -237 -3 -6
-322 -12 -491 -9 -31 1 -33 -2 -33 -32 -1 -60 -1 -762 0 -820 l0 -58 149 0
149 0 1 297 c1 225 4 299 14 305 17 12 196 3 209 -10 6 -6 11 -43 10 -84 0
-40 -1 -225 -2 -410 l-1 -338 -282 0 c-155 -1 -442 -2 -637 -3 l-355 -2 -1
-125 c0 -69 1 -129 3 -135 2 -5 47 -11 100 -13 53 -1 99 -4 101 -7 3 -3 5
-134 4 -293 0 -158 2 -300 5 -315 l6 -29 746 5 c410 2 755 7 766 10 11 2 43 8
70 11 80 11 145 49 223 131 71 74 95 114 107 177 16 88 19 241 20 958 l0 775
-38 6 c-21 3 -40 2 -43 -3 -3 -4 -10 -6 -15 -2 -8 5 -348 8 -374 3 -5 -1 -13
-1 -16 -1 -4 1 -23 2 -43 4 -29 2 -36 6 -37 23 0 11 -1 120 -1 243 l1 223
-151 -3 c-82 -2 -151 -5 -152 -8z m569 -1400 l-1 -615 -26 -50 c-32 -62 -100
-126 -163 -154 -47 -21 -57 -21 -598 -19 l-549 3 0 115 c1 63 1 125 1 138 1
22 3 23 109 23 59 0 114 0 122 0 8 0 31 0 50 0 19 -1 42 0 50 0 8 1 58 1 110
0 52 0 102 0 110 0 8 0 31 0 50 0 19 -1 42 0 50 0 8 1 58 1 110 0 52 0 102 0
110 0 8 1 29 0 45 0 17 -1 58 -1 92 -1 l62 -1 0 468 c0 257 0 523 0 591 l1
123 133 -3 132 -3 0 -615z"/>
<path d="M1829 1992 l-169 -2 0 -150 0 -150 405 0 406 0 -2 149 -1 149 -71 4
c-40 2 -108 1 -152 -2 -44 -3 -118 -3 -163 0 -46 3 -160 4 -253 2z"/>
<path d="M2917 1994 c-3 -3 -50 -7 -104 -9 -54 -2 -100 -3 -103 -4 -3 -1 -5
-109 -5 -241 0 -216 -2 -241 -18 -257 -16 -16 -44 -18 -272 -21 l-255 -3 0
-52 c-3 -349 1 -802 7 -808 8 -8 48 -9 303 -9 178 0 211 -4 227 -25 13 -18 13
-110 1 -242 -1 -10 -84 -12 -369 -11 -203 1 -372 4 -377 7 -10 7 -10 8 -11
201 l-1 140 -140 0 -140 0 0 -330 0 -330 952 3 952 2 0 455 0 454 -157 4 -157
3 -1 -48 c-4 -317 -7 -549 -8 -553 -1 -3 -53 -6 -116 -7 l-115 -2 0 304 0 305
-276 0 -275 0 3 118 4 117 154 2 c85 1 208 2 273 2 l117 1 0 416 0 416 -33 -3
c-18 -2 -37 0 -43 4 -6 3 -14 4 -17 1z"/>
<path d="M3250 1840 l0 -150 160 0 159 0 -2 140 c-2 77 -7 143 -11 147 -4 4
-75 9 -157 10 l-149 2 0 -149z"/>
<path d="M4500 1310 l0 -150 145 0 145 0 -1 150 0 150 -145 0 -144 0 0 -150z"/>
<path d="M1130 773 c0 -80 3 -144 6 -141 3 4 19 2 35 -2 16 -5 29 -6 29 -2 0
4 33 6 72 4 74 -3 88 -3 111 -1 6 1 19 0 27 -2 13 -3 15 18 18 144 l3 147
-151 0 -150 0 0 -147z"/>
</g>
</svg>
